<?xml version="1.0" standalone="no"?><!DOCTYPE svg PUBLIC "-//W3C//DTD SVG 1.1//EN" "http://www.w3.org/Graphics/SVG/1.1/DTD/svg11.dtd"><svg t="1651062302486" class="icon" viewBox="0 0 1024 1024" version="1.1" xmlns="http://www.w3.org/2000/svg" p-id="1395" xmlns:xlink="http://www.w3.org/1999/xlink" width="200" height="200"><defs><style type="text/css">@font-face { font-family: feedback-iconfont; src: url("//at.alicdn.com/t/font_1031158_u69w8yhxdu.woff2?t=1630033759944") format("woff2"), url("//at.alicdn.com/t/font_1031158_u69w8yhxdu.woff?t=1630033759944") format("woff"), url("//at.alicdn.com/t/font_1031158_u69w8yhxdu.ttf?t=1630033759944") format("truetype"); }
</style></defs><path d="M512 512m-512 0a512 512 0 1 0 1024 0 512 512 0 1 0-1024 0Z" fill="#d81e06" opacity=".15" p-id="1396"></path><path d="M740.666182 389.899636l-159.674182-131.025454a115.432727 115.432727 0 0 0-146.350545 0l-159.720728 131.025454a115.304727 115.304727 0 0 0-42.193454 89.204364v196.794182a115.374545 115.374545 0 0 0 115.374545 115.374545h319.394909a115.374545 115.374545 0 0 0 115.374546-115.374545v-196.794182a115.304727 115.304727 0 0 0-42.193455-89.204364m-107.322182 341.422546h-251.124363a20.945455 20.945455 0 1 1 0-41.890909h251.124363a20.945455 20.945455 0 1 1 0 41.890909" fill="#d81e06" p-id="1397"></path></svg>